<?xml version="1.0" encoding="utf-8"?>
<svg version="1.0" width="805.000000pt" height="310.000000pt" viewBox="0 0 805.000000 310.000000" preserveAspectRatio="xMidYMid meet" xmlns="http://www.w3.org/2000/svg">
  <g transform="translate(0.000000,310.000000) scale(0.100000,-0.100000)" fill="#000000" stroke="none">
    <path d="M4005 2171 c-62 -36 -91 -66 -120 -126 l-22 -47 -33 39 -32 38 6 -155 c4 -85 11 -218 16 -295 5 -77 11 -202 12 -278 3 -120 5 -140 21 -148 12 -7 17 -23 17 -59 l0 -49 48 -13 c40 -12 47 -18 50 -41 l3 -27 284 0 284 0 3 27 c3 23 10 29 51 41 l47 13 0 49 c0 36 5 52 17 59 15 8 18 29 21 143 2 73 7 192 12 263 5 72 12 207 15 300 l7 170 -35 -39 -34 -40 -13 39 c-15 46 -96 130 -145 151 -26 11 -82 14 -232 14 l-198 0 -50 -29z m501 -26 c46 -27 98 -94 110 -139 9 -35 30 -43 54 -21 19 18 20 17 20 -8 l0 -27 -435 0 -435 0 0 25 c0 25 1 25 25 9 14 -9 28 -14 31 -11 4 3 20 34 38 68 23 46 44 71 80 96 l48 33 211 0 c207 0 211 0 253 -25z m182 -237 l-3 -23 -430 0 -430 0 -3 23 -3 22 436 0 436 0 -3 -22z m-8 -88 l0 -40 -422 2 -423 3 -3 38 -3 37 425 0 426 0 0 -40z m-812 -164 c2 -76 0 -97 -10 -94 -9 3 -14 34 -16 102 -2 76 0 97 10 94 9 -3 14 -34 16 -102z m57 3 c0 -77 -3 -94 -15 -94 -12 0 -16 17 -18 84 -3 92 1 115 21 108 8 -2 12 -31 12 -98z m55 1 c0 -82 -3 -100 -15 -100 -12 0 -15 17 -15 93 0 52 3 97 7 100 18 19 23 -1 23 -93z m58 -3 c2 -82 0 -97 -13 -97 -12 0 -15 17 -15 101 0 76 3 100 13 97 8 -3 13 -35 15 -101z m60 0 c2 -82 0 -97 -13 -97 -12 0 -15 17 -15 101 0 76 3 100 13 97 8 -3 13 -35 15 -101z m57 2 c0 -77 -3 -94 -15 -94 -12 0 -16 17 -18 84 -3 92 1 115 21 108 8 -2 12 -31 12 -98z m60 0 c0 -81 -2 -94 -17 -97 -16 -3 -18 6 -18 91 0 51 3 97 7 101 20 20 28 -7 28 -95z m53 -2 c2 -82 0 -97 -13 -97 -12 0 -15 17 -15 101 0 76 3 100 13 97 8 -3 13 -35 15 -101z m60 0 c2 -82 0 -97 -13 -97 -12 0 -15 17 -15 101 0 76 3 100 13 97 8 -3 13 -35 15 -101z m57 2 c0 -77 -3 -94 -15 -94 -12 0 -16 17 -18 84 -3 92 1 115 21 108 8 -2 12 -31 12 -98z m60 0 c0 -81 -2 -94 -17 -97 -16 -3 -18 6 -18 91 0 51 3 97 7 101 20 20 28 -7 28 -95z m55 1 c0 -82 -3 -100 -15 -100 -12 0 -15 17 -15 93 0 52 3 97 7 100 18 19 23 -1 23 -93z m58 -3 c2 -82 0 -97 -13 -97 -12 0 -15 17 -15 101 0 76 3 100 13 97 8 -3 13 -35 15 -101z m60 -1 c2 -89 1 -97 -15 -94 -15 3 -18 16 -21 87 -3 92 1 115 21 109 8 -3 13 -35 15 -102z m50 7 c-2 -66 -7 -98 -15 -101 -10 -3 -13 20 -13 91 0 51 3 97 7 100 19 19 23 -2 21 -90z m-10 -150 l-3 -28 -400 0 -400 0 -3 28 -3 27 406 0 406 0 -3 -27z m0 -118 c2 -27 1 -78 -3 -112 l-7 -63 -392 0 -393 0 -7 46 c-8 62 -8 169 1 177 4 4 185 6 402 5 l396 -3 3 -50z m-38 -235 l0 -30 -365 0 -365 0 0 30 0 30 365 0 365 0 0 -30z m-40 -55 c0 -3 -16 -12 -36 -20 -29 -12 -87 -15 -295 -15 -161 0 -260 4 -264 10 -3 6 -15 10 -26 10 -10 0 -19 5 -19 10 0 6 113 10 320 10 176 0 320 -2 320 -5z m-60 -65 c0 -6 -95 -10 -265 -10 -170 0 -265 4 -265 10 0 6 95 10 265 10 170 0 265 -4 265 -10z" style="fill: rgb(255, 255, 255);"/>
    <path d="M4067 1413 c-4 -3 -7 -37 -7 -75 l0 -68 194 0 194 0 4 61 c1 33 -1 67 -5 75 -6 11 -43 14 -191 14 -100 0 -186 -3 -189 -7z m363 -73 l0 -50 -175 0 -175 0 0 50 0 50 175 0 175 0 0 -50z" style="fill: rgb(255, 255, 255);"/>
    <path d="M4117 1343 c-12 -11 -8 -23 8 -23 8 0 15 7 15 15 0 16 -12 20 -23 8z" style="fill: rgb(255, 255, 255);"/>
    <path d="M4170 1335 c0 -9 9 -15 25 -15 16 0 25 6 25 15 0 9 -9 15 -25 15 -16 0 -25 -6 -25 -15z" style="fill: rgb(255, 255, 255);"/>
    <path d="M4260 1335 c0 -9 9 -15 25 -15 16 0 25 6 25 15 0 9 -9 15 -25 15 -16 0 -25 -6 -25 -15z" style="fill: rgb(255, 255, 255);"/>
    <path d="M3882 1333 c3 -33 6 -38 28 -38 22 0 25 5 28 38 3 35 2 37 -28 37 -30 0 -31 -2 -28 -37z" style="fill: rgb(255, 255, 255);"/>
    <path d="M4507 1354 c-4 -4 -7 -16 -7 -26 0 -15 6 -19 28 -16 19 2 27 9 27 23 0 20 -33 33 -48 19z" style="fill: rgb(255, 255, 255);"/>
    <path d="M4620 1320 c0 -5 5 -10 10 -10 6 0 10 5 10 10 0 6 -4 10 -10 10 -5 0 -10 -4 -10 -10z" style="fill: rgb(255, 255, 255);"/>
    <path d="M3910 1160 c0 -5 5 -10 10 -10 6 0 10 5 10 10 0 6 -4 10 -10 10 -5 0 -10 -4 -10 -10z" style="fill: rgb(255, 255, 255);"/>
    <path d="M5087 1996 c-48 -18 -71 -38 -91 -81 -35 -73 -12 -137 80 -225 86 -83 105 -146 61 -211 -58 -88 -237 -108 -237 -26 0 49 71 118 155 151 6 2 0 14 -12 26 -14 16 -37 24 -71 28 -44 4 -52 1 -86 -28 -56 -50 -79 -102 -74 -169 5 -50 9 -59 50 -96 76 -68 173 -84 263 -41 61 28 102 68 126 121 44 95 11 196 -100 304 -80 78 -93 110 -64 149 44 59 125 54 131 -7 2 -20 -3 -40 -13 -51 -21 -24 -14 -36 26 -44 22 -4 40 -1 57 10 22 14 24 21 20 65 -10 99 -121 162 -221 125z" style="fill: rgb(255, 255, 255);"/>
    <path d="M1893 1980 c-46 -11 -127 -65 -158 -106 -69 -91 -79 -164 -29 -224 38 -44 54 -39 54 16 0 77 20 124 77 183 29 30 55 52 59 49 3 -3 -18 -68 -47 -145 -50 -134 -88 -248 -109 -325 -10 -35 -13 -37 -40 -31 -25 5 -30 2 -30 -14 0 -52 52 -71 260 -95 124 -14 154 -8 175 32 28 53 24 55 -86 52 -55 -2 -117 -1 -136 3 l-36 6 6 53 c6 65 43 174 112 336 74 174 74 175 33 200 -35 21 -53 23 -105 10z" style="fill: rgb(255, 255, 255);"/>
    <path d="M5469 1923 c-31 -72 -169 -455 -169 -468 0 -20 40 -65 59 -65 11 0 20 13 28 43 22 78 203 325 203 275 0 -8 -18 -64 -40 -123 -46 -125 -48 -144 -17 -173 43 -41 89 -24 147 53 39 51 50 56 50 19 0 -16 13 -39 34 -60 28 -28 41 -34 78 -34 47 0 100 27 117 59 7 12 26 23 48 27 51 10 128 89 176 182 21 40 37 77 35 82 -2 6 -28 -25 -58 -67 -52 -73 -113 -128 -130 -118 -4 3 1 31 12 62 11 32 20 84 21 116 2 55 0 61 -31 88 -58 52 -155 35 -208 -38 -25 -34 -68 -117 -79 -153 -9 -30 -31 -60 -93 -124 -33 -35 -48 -44 -50 -33 -3 12 47 148 115 314 8 19 -35 53 -67 53 -35 0 -114 -67 -151 -127 -37 -60 -31 -28 15 86 25 60 46 116 46 124 0 19 -32 47 -54 47 -10 0 -24 -17 -37 -47z m519 -163 c3 -42 -29 -165 -43 -164 -15 0 -55 76 -55 104 0 32 56 102 79 98 10 -2 17 -15 19 -38z m-128 -172 c0 -6 12 -27 26 -46 l26 -34 -19 -26 c-28 -37 -59 -40 -67 -8 -3 15 -4 37 -1 51 3 14 7 36 10 50 5 25 25 36 25 13z" style="fill: rgb(255, 255, 255);"/>
    <path d="M2829 1822 c-27 -24 -33 -37 -34 -75 -2 -40 -11 -58 -68 -134 -68 -91 -133 -160 -142 -152 -6 7 31 117 79 231 41 100 43 109 18 131 -43 39 -103 12 -174 -81 -22 -29 -42 -51 -45 -49 -2 2 4 20 12 40 20 48 19 77 -2 93 -42 32 -59 12 -109 -134 -32 -90 -172 -242 -225 -242 -40 0 -49 11 -49 59 0 56 13 82 32 63 37 -37 114 3 152 79 43 87 31 147 -36 173 -57 23 -83 20 -124 -16 -66 -58 -144 -257 -130 -331 10 -56 49 -87 108 -87 60 0 99 19 159 77 l46 45 -1 -41 c0 -29 5 -47 21 -62 27 -27 48 -20 56 20 12 59 163 281 192 281 16 0 13 -13 -34 -139 -36 -99 -39 -133 -11 -161 34 -34 67 -26 123 30 27 28 51 50 52 50 1 0 5 -13 8 -30 12 -55 101 -87 171 -60 14 5 43 26 65 46 31 27 41 32 41 19 0 -9 13 -30 29 -46 24 -24 38 -29 76 -29 61 0 101 18 151 68 41 41 54 44 54 13 1 -9 9 -25 18 -37 59 -70 164 -57 238 30 39 44 125 185 148 241 18 41 3 47 -18 8 -8 -16 -35 -56 -60 -91 l-47 -63 -49 96 c-50 96 -59 128 -40 140 6 3 10 17 10 31 0 18 -5 24 -23 24 -39 0 -95 -78 -81 -113 15 -39 -182 -268 -243 -283 -50 -13 -72 22 -58 93 5 28 10 33 23 27 9 -4 31 -9 48 -11 84 -12 173 168 117 236 -27 31 -101 48 -138 30 -54 -26 -101 -105 -150 -254 -6 -17 -11 -11 -30 32 -13 28 -35 68 -49 89 -26 39 -34 88 -16 99 6 3 10 17 10 31 0 33 -31 32 -71 -4z m-591 -56 c9 -47 -62 -166 -98 -166 -32 0 -31 16 5 86 53 101 84 127 93 80z m992 -4 c0 -64 -62 -162 -101 -162 -26 0 -24 21 11 91 45 89 90 124 90 71z m199 -126 c38 -65 40 -114 9 -143 -54 -49 -118 -32 -118 30 0 27 63 167 75 167 2 0 17 -24 34 -54z m-586 -5 c45 -82 30 -144 -41 -166 -35 -10 -72 18 -72 56 0 29 64 159 78 159 4 0 19 -22 35 -49z" style="fill: rgb(255, 255, 255);"/>
    <path d="M6283 1828 c-9 -13 -114 -302 -168 -462 -29 -88 -27 -127 8 -151 32 -22 47 -18 48 13 0 15 10 61 23 102 16 55 26 74 36 71 8 -3 38 -7 65 -9 59 -4 101 19 151 85 45 58 94 190 97 259 2 50 -1 58 -26 80 -34 29 -85 32 -119 5 -24 -19 -24 -19 -36 0 -14 22 -64 26 -79 7z m155 -81 c8 -67 -72 -249 -123 -283 -37 -24 -48 -10 -42 52 5 53 72 211 104 247 25 27 57 18 61 -16z" style="fill: rgb(255, 255, 255);"/>
  </g>
</svg>